<svg xmlns="http://www.w3.org/2000/svg" viewBox="0 0 32 32" fill="none">
  <defs>
    <linearGradient id="dodo-bg" x1="4" y1="4" x2="28" y2="28" gradientUnits="userSpaceOnUse">
      <stop stop-color="#8a83ff"/>
      <stop offset="1" stop-color="#635bdb"/>
    </linearGradient>
  </defs>
  <rect width="32" height="32" rx="9" fill="url(#dodo-bg)"/>
  <path d="M8.5 10.5h6.2c2.8 0 4.5 1.5 4.5 3.9 0 2.1-1.4 3.4-3.6 3.7l4.4 5.4h-3.3l-3.8-4.8H11.2v4.8H8.5V10.5zm2.7 2.2v3.9h3.2c1.4 0 2.2-.7 2.2-1.9s-.8-2-2.2-2h-3.2z" fill="#fff"/>
  <path d="M17.8 10.5h6.2c2.8 0 4.5 1.5 4.5 3.9 0 2.1-1.4 3.4-3.6 3.7l4.4 5.4h-3.3l-3.8-4.8h-2.6v4.8h-2.7V10.5zm2.7 2.2v3.9h3.2c1.4 0 2.2-.7 2.2-1.9s-.8-2-2.2-2h-3.2z" fill="#fff" opacity="0.92"/>
</svg>
